<svg width="228" height="63" viewBox="0 0 228 63" fill="none" xmlns="http://www.w3.org/2000/svg">
<path fill-rule="evenodd" clip-rule="evenodd" d="M126.944 36.327L132.462 36.6253L128.373 31.1131C127.661 30.2234 126.773 28.8019 125.529 26.6671L123.217 21.155H121.441V26.6671C121.441 28.9783 121.795 30.2234 122.328 30.2234H124.463V31.6462H113.616V30.2234H115.217C115.395 30.2234 115.571 30.0444 115.571 29.868V12.0878C115.571 11.0217 115.393 10.3097 115.217 10.132C114.973 9.90966 114.657 9.78338 114.327 9.7766H112.728V8.35382H124.463C126.061 8.35382 127.663 8.7092 128.906 9.24355C131.397 10.4886 132.64 12.4445 132.64 15.4664C132.64 16.3549 132.286 17.0669 131.751 17.9553C130.864 19.1991 129.441 19.9112 127.839 20.0889C128.551 21.334 132.107 27.0238 138.686 36.9794L144.018 37.1583L140.106 32.5359C137.796 29.5127 136.552 27.2015 136.372 25.9577C136.194 24.0018 136.729 22.579 137.618 21.3352C138.684 20.0902 140.284 19.5571 142.241 19.5571C144.909 19.5571 146.684 21.8683 147.573 26.6684C146.151 23.1121 143.839 21.8683 140.817 23.1121C139.927 23.4675 139.216 24.0018 139.038 24.5349L138.861 25.6023C138.861 26.8474 139.395 27.9135 140.639 28.8032C141.883 29.8693 143.483 30.4024 145.439 30.4024C147.395 30.4024 148.995 29.8693 150.239 28.9796C151.483 27.7358 152.195 26.313 152.195 24.5349C152.195 23.2911 151.841 22.2237 150.951 21.3352C149.975 20.5915 148.896 19.9926 147.749 19.5571L143.661 18.1343C142.063 17.4236 140.817 16.7115 139.927 16.0008C137.793 14.4003 136.727 12.0891 136.727 9.42253C136.727 6.39928 138.149 3.91039 140.815 2.31122C143.128 0.710749 145.793 0 148.995 0C151.663 0 153.795 0.355378 155.574 0.888435L155.928 5.15678C156.105 5.86752 155.75 6.22419 155.216 6.22419C154.684 6.22419 154.329 5.86882 154.15 5.15678C153.972 4.26706 153.26 3.37862 152.194 2.84556C151.304 2.31251 150.06 2.13483 148.816 2.13483C147.216 2.13483 145.972 2.4902 144.905 3.20094C143.658 4.09066 142.946 5.33576 142.946 6.93493C142.946 8.00234 143.303 8.89077 144.193 9.60281C144.724 10.1359 145.791 10.6689 147.215 11.202L151.303 12.8024C152.903 13.3355 154.327 14.2252 155.571 15.1137C156.481 16.0335 157.205 17.1198 157.705 18.3133C158.239 19.5584 158.594 20.8022 158.594 22.0473C158.594 26.1366 157.173 28.9822 154.329 30.5827C151.838 31.8265 147.927 32.5385 142.77 32.5385C142.416 32.5385 142.592 33.0716 143.304 33.9613C143.836 35.0274 144.726 36.0961 145.972 37.1622L160.018 37.873L171.752 39.2958C171.574 39.8301 164.462 40.3632 150.416 40.8962C152.374 42.14 154.506 42.8521 156.462 43.3851C160.196 44.0959 163.572 44.0959 166.418 43.3851C168.196 42.8521 170.508 41.7847 173.354 40.1842C176.554 38.406 179.044 37.1622 181 36.4502C184.556 35.2064 188.645 34.672 193.268 34.672C196.824 34.672 199.67 35.2064 201.802 36.4502C203.58 37.5163 204.646 38.7614 205.004 40.3632C205.358 41.9623 205.004 43.2061 204.114 44.4512C203.046 45.6963 201.446 46.2294 199.492 46.2294C202.869 41.4293 200.024 38.406 190.958 37.3399C188.29 37.1622 185.623 37.3399 183.133 37.873C181.177 38.2283 179.221 38.9404 176.911 40.1842L171.222 42.8521C168.909 43.9182 166.953 44.6302 165.175 44.8079C161.441 45.341 157.529 44.9856 153.797 43.7418C151.663 42.8521 149.709 41.9636 148.107 40.8975L141.351 41.0752L155.217 62.2328L144.727 52.0995C144.195 52.0995 141.35 48.7209 136.193 41.7859L135.839 41.2529L129.083 41.6005V41.7872C129.083 41.7989 129.062 41.9494 129.06 41.9597L129.057 41.9701C128.938 42.4289 128.753 42.8683 128.51 43.2749L128.512 43.2762C127.901 44.28 126.917 45.0673 125.632 45.638L125.611 45.6483C125.11 45.8669 124.589 46.0358 124.056 46.1529C122.599 46.4698 121.086 46.4275 119.649 46.0297L119.641 46.0271C119.071 45.8701 118.514 45.6667 117.977 45.4188C116.713 44.8438 115.587 44.0054 114.673 42.9597H114.675C113.983 42.1673 113.535 41.3657 113.308 40.5564C113.077 39.741 113.067 38.8789 113.279 38.0584L113.282 38.0481C113.397 37.5883 113.582 37.1487 113.83 36.7446L113.829 36.7433C114.44 35.7394 115.423 34.9509 116.707 34.3815L116.771 34.3556L116.794 34.3478C117.025 34.2726 117.27 34.2012 117.536 34.1351V34.1338C117.789 34.0702 118.049 34.0158 118.317 33.9704C119.762 33.7184 121.244 33.783 122.662 34.1597C123.034 34.2175 123.402 34.2998 123.764 34.4062C124.721 34.6954 125.626 35.1571 126.331 35.72L126.386 35.7732L126.944 36.327V36.327ZM127.661 41.7003V41.2477L127.669 41.1478C127.746 40.6287 127.703 40.0989 127.542 39.5993C127.372 39.0727 127.069 38.5383 126.607 37.9975L125.427 36.8172C124.808 36.3396 124.105 35.9824 123.354 35.7641C123.201 35.7175 123.047 35.6759 122.891 35.6396H122.889C122.735 35.6049 122.579 35.5767 122.423 35.5553L122.405 35.5527L122.319 35.5345C120.867 35.1458 119.339 35.1364 117.882 35.5073H117.88C117.675 35.5592 117.462 35.6214 117.247 35.6928C116.251 36.1415 115.498 36.7381 115.048 37.4774H115.046C114.96 37.6201 114.884 37.7692 114.82 37.9171C114.757 38.0707 114.705 38.2284 114.664 38.3892L114.662 38.3995C114.513 38.9923 114.513 39.5824 114.677 40.1686C114.85 40.7808 115.203 41.3995 115.75 42.0285L115.758 42.0337C116.537 42.924 117.497 43.6373 118.575 44.1257C119.041 44.3399 119.524 44.5156 120.018 44.651L120.026 44.6536C121.242 44.9927 122.523 45.0315 123.758 44.7664C124.198 44.6655 124.629 44.5239 125.044 44.3436L125.067 44.3332C126.08 43.8832 126.846 43.2814 127.3 42.5317H127.302C127.463 42.2744 127.584 41.9941 127.661 41.7003V41.7003ZM125.528 18.6674C124.816 19.3781 123.75 19.7348 122.326 19.7348H121.439V10.4886C121.439 10.311 121.616 10.1333 122.148 10.1333C123.394 10.1333 124.638 10.6663 125.527 11.7337C126.415 12.8012 126.77 14.0449 126.77 15.29C126.772 16.7115 126.418 17.7789 125.528 18.6674V18.6674ZM182.78 8.35512V9.7779H181.537L181.002 9.95688L180.824 10.4899V26.6697C180.824 28.9809 181.179 30.226 181.714 30.226H183.67V31.6488H173.002V30.226H174.6C174.778 30.226 174.954 30.047 174.954 29.8706V19.9138H167.132V26.6697C167.132 28.9809 167.489 30.226 168.022 30.226H170.156V31.6488H159.312V30.226H160.912C161.09 30.226 161.266 30.047 161.266 29.8706V12.0878C161.266 11.0217 161.088 10.3097 160.912 10.132C160.732 9.95429 160.555 9.7766 160.2 9.7766H158.422V8.35382H169.268V9.7766H167.844L167.31 9.95558L167.132 10.4886V18.3107H174.954V12.0878C174.954 11.0217 174.777 10.3097 174.6 10.132C174.423 9.95429 174.246 9.7766 173.888 9.7766H172.11V8.35382H182.78V8.35512V8.35512ZM186.691 29.335C189.001 31.2908 191.849 32.3582 195.402 32.3582C199.849 32.3582 203.227 30.7578 205.537 27.7358C207.493 25.4246 208.381 22.579 208.381 19.3781C208.381 15.8218 207.315 12.9775 205.004 10.844C202.691 8.71049 199.846 7.64308 196.29 7.64308C191.846 7.64308 188.468 9.24354 186.155 12.2668C184.199 14.7557 183.311 17.6 183.311 20.6232C183.312 24.3572 184.381 27.2015 186.691 29.335ZM207.851 8.35512V9.7779H209.626C209.983 9.7779 210.161 9.95688 210.338 10.1333C210.516 10.311 210.695 11.023 210.695 12.0891V29.8693C210.695 30.047 210.515 30.2247 210.338 30.2247H208.741V31.6475H219.585V30.2247H217.451C216.917 30.2247 216.561 28.9796 216.561 26.6684V20.8009L219.583 21.1563C222.251 21.1563 224.383 20.4455 225.985 19.0227C227.229 17.7789 227.941 16.3549 227.941 14.7557C227.941 13.1552 227.407 11.9114 226.163 10.6663C224.741 9.06716 222.607 8.35512 219.761 8.35512H207.851V8.35512ZM194.871 9.24355C197.539 9.24355 199.671 10.844 200.915 14.2226C201.981 16.7115 202.515 19.5558 202.515 22.579C202.515 24.8903 202.161 26.6684 201.449 28.0912C200.383 29.8693 198.781 30.7591 196.827 30.7591C194.159 30.7591 192.026 29.1599 190.602 25.959C189.713 23.4701 189.181 20.6245 189.181 17.4249C189.181 15.29 189.535 13.5119 190.247 12.0904C191.137 10.1333 192.735 9.24355 194.871 9.24355V9.24355ZM220.828 11.7337C221.718 12.8012 222.075 14.0449 222.075 15.4677C222.075 16.7115 221.718 17.6013 221.009 18.312C220.119 19.2017 219.231 19.5571 217.984 19.5571L216.563 19.2017V10.4886C216.563 10.311 216.917 10.1333 217.452 10.1333C218.873 10.1333 219.939 10.6663 220.828 11.7337V11.7337ZM135.84 39.1142L136.194 38.2245L137.084 37.8691C137.441 37.8691 137.796 38.0481 137.974 38.2245L138.33 39.1142C138.33 39.4683 138.15 39.8262 137.974 40.0039C137.797 40.1816 137.442 40.3593 137.084 40.3593L136.194 40.0039C135.973 39.7597 135.847 39.4437 135.84 39.1142ZM2.31251 2.66528C2.84557 2.66528 3.20094 2.84297 3.37862 3.02066C3.734 3.55371 3.91168 4.44344 3.91168 5.68724V29.335C3.91168 29.5127 3.55631 29.6904 3.02196 29.6904L0.710744 29.868V31.6462H11.5574L16.5352 31.4685C18.491 31.2895 20.0915 30.9342 21.3353 30.4011C23.1134 29.868 24.5362 28.9783 25.6023 27.7345C26.6546 26.3564 27.2178 24.667 27.2028 22.9331C27.2028 18.4884 24.3585 15.6428 18.6674 14.3977C20.8022 13.8647 22.4014 13.1539 23.2898 12.4419C24.8903 11.1968 25.7787 9.59762 25.7787 7.64049C25.7787 6.39669 25.2456 5.15159 24.3559 3.90649C22.5778 1.95195 19.7335 0.88325 15.6441 0.88325H0V2.6614H2.31251V2.66528V2.66528ZM35.9159 8.5328L31.4711 18.6661C28.8033 25.0679 27.3818 28.8006 27.0251 29.6904C27.0251 29.868 26.8474 30.0444 26.6697 30.2234H24.8929V31.6462H32.1832V30.2234H29.5153L29.3376 29.6904C29.3376 29.1573 29.693 27.9122 30.2273 26.313L31.2934 23.6452H38.2284C39.6512 27.7345 40.3632 29.6904 40.3632 29.868C40.3632 30.0457 40.1855 30.2234 39.8289 30.2234H38.2284V31.6462H48.8973V30.2234H47.8299C47.2968 30.2234 46.9402 30.0444 46.7625 29.5114L45.5187 26.8448L41.6057 16.5325C40.0065 12.4432 39.2945 10.1307 39.2945 9.7753L39.8276 9.06457C40.0052 8.88688 40.1829 8.70919 40.1829 8.53151C40.1829 8.17614 40.0052 7.99715 39.6486 7.99715L35.9159 8.5328V8.5328ZM12.8025 3.02066C14.5806 3.02066 16.0034 3.55372 17.2472 4.79881C18.491 6.04261 19.0253 7.64308 19.0253 9.42124C19.0253 10.4886 18.8477 11.3771 18.4923 12.0878C17.9592 12.9775 17.2485 13.6883 16.3588 13.866L11.5587 13.5106V3.55372C11.5574 3.19835 11.9127 3.02066 12.8025 3.02066V3.02066ZM11.5574 21.8683V15.29C14.5806 15.29 16.7141 16.1798 18.1356 18.1343C19.203 19.5571 19.7361 21.1576 19.7361 22.9357C19.7361 24.7139 19.2017 26.3143 18.1356 27.5581C16.8918 28.8032 15.469 29.514 13.6909 29.514L12.6235 29.3363C12.3058 29.1969 12.0521 28.9432 11.9127 28.6255C11.735 27.7358 11.5574 25.601 11.5574 21.8683V21.8683ZM31.8265 22.0447L35.0261 14.7557L37.694 22.0447H31.8265ZM51.5626 12.0878V29.868C51.5562 29.9602 51.5168 30.0469 51.4514 30.1123C51.3861 30.1776 51.2994 30.2171 51.2072 30.2234H49.6081V31.6462H60.4534V30.2234H58.3198C57.7868 30.2234 57.4301 28.9783 57.4301 26.6671V21.155H59.2083L61.6972 26.6671C62.7646 28.8019 63.653 30.2234 64.5414 31.1131C64.7191 31.2908 64.8968 31.4685 65.2535 31.6462H72.1871V30.2234C71.4764 30.2234 70.7643 29.868 70.2313 29.3337C68.2754 27.3779 66.3196 24.1769 64.0084 20.0876C65.6076 19.9099 66.8527 19.1991 67.7424 17.954C68.4531 17.0643 68.8085 16.3536 68.8085 15.4651C68.8085 12.4419 67.5647 10.4874 64.8968 9.24225C63.5501 8.65749 62.0979 8.35469 60.6298 8.35252H48.717V9.7753H50.4952C50.8506 9.7753 51.0295 9.95429 51.2059 10.1307C51.3849 10.311 51.5626 11.0217 51.5626 12.0878V12.0878ZM58.3186 10.1333C59.5624 10.1333 60.6298 10.6663 61.5195 11.7337C62.4079 12.8012 62.7633 14.0449 62.7633 15.29C62.7633 16.7128 62.4079 17.7789 61.6959 18.6674C60.8061 19.3781 59.74 19.7348 58.4949 19.7348H57.4288V10.4886C57.4301 10.311 57.7855 10.1333 58.3186 10.1333V10.1333ZM75.0314 12.0878V29.868C75.025 29.9602 74.9855 30.0469 74.9202 30.1123C74.8549 30.1776 74.7682 30.2171 74.676 30.2234H73.0755V31.6462H80.8989C84.2762 31.6462 86.7664 31.2908 88.1892 30.7565C91.2112 29.6904 92.634 27.7345 92.634 25.0666C92.634 21.6893 90.5004 19.5545 86.2321 18.6648C87.8325 18.1317 88.9 17.5987 89.7884 17.0656C91.0322 16.1759 91.5665 15.1098 91.5665 13.5093C91.5665 12.6209 91.2112 11.7311 90.4991 10.8427C89.2553 9.24225 86.9428 8.35382 83.9209 8.35382H72.1858V9.7766H73.964C74.3193 9.7766 74.4983 9.95559 74.676 10.132C74.8537 10.311 75.0314 11.0217 75.0314 12.0878V12.0878ZM94.5911 9.7766H92.8116V8.35382H111.482L111.126 12.0878C110.949 12.4432 110.771 12.6222 110.416 12.6222C110.06 12.6222 109.881 12.4445 109.881 11.9114L109.526 11.1994L108.815 10.6663L105.792 10.1333H101.702L101.525 10.6663V18.312H103.481C105.436 18.312 106.682 18.1343 107.215 17.9579C107.57 17.7802 107.748 17.4249 107.748 16.8905V15.6467H108.993V22.0473H107.748V21.5129C107.748 20.8009 107.57 20.4455 107.392 20.2691C107.037 20.0902 106.147 19.9138 104.726 19.9138H101.525V24.3585C101.525 26.6697 101.525 28.2702 101.702 29.1599C101.881 29.693 102.058 30.0483 102.413 30.0483L107.925 29.6943C109.881 29.3389 110.949 28.6281 111.482 27.7384L112.194 27.2041C112.549 27.2041 112.727 27.383 112.727 27.7384C112.727 28.2715 112.371 29.5153 111.659 31.6501H93.7014V30.2273H95.3018C95.4795 30.2273 95.6572 30.0483 95.6572 29.8719V12.0878C95.6572 11.0217 95.4782 10.3097 95.3018 10.132C95.1241 9.95559 94.9452 9.7766 94.5911 9.7766V9.7766ZM84.4565 18.1343L80.9002 17.9566V10.4886C80.9002 10.311 81.2556 10.1333 81.7899 10.1333C83.0337 10.1333 84.2788 10.4886 85.1673 11.3784C86.0557 12.2681 86.4124 13.5119 86.4124 14.9334C86.4124 15.6454 86.2334 16.3562 86.057 16.8892C85.7003 17.6 85.166 17.9566 84.4565 18.1343V18.1343ZM82.4994 30.0457L81.611 29.868C81.4333 29.868 81.2556 29.6904 81.2556 29.335C81.0766 28.8019 80.9002 27.0238 80.9002 24.3572V19.3781C83.0337 19.3781 84.6342 20.0889 85.878 21.5129C86.7677 22.579 87.1231 23.8241 87.1231 25.0692C87.1231 26.3143 86.5887 27.5581 85.7003 28.4466C84.8106 29.5127 83.7445 30.0457 82.4994 30.0457V30.0457Z" fill="black"/>
</svg>
