<svg width="231" height="134" viewBox="0 0 231 134" fill="none" xmlns="http://www.w3.org/2000/svg">
<path d="M55.0285 124.761V123.892H58.6198V124.761L57.5005 124.953V128.395H62.3485V124.953L61.2292 124.761V123.892H64.8205V124.761L63.7012 124.953V132.802L64.8205 132.994V133.856H61.2292V132.994L62.3485 132.802V129.456H57.5005V132.802L58.6198 132.994V133.856H55.0285V132.994L56.1478 132.802V124.953L55.0285 124.761Z" fill="#999591"/>
<path d="M70.8083 133.856C70.7671 133.656 70.7351 133.475 70.7122 133.316C70.6893 133.156 70.6733 132.996 70.6641 132.837C70.4032 133.17 70.0759 133.448 69.6822 133.671C69.2931 133.89 68.8765 134 68.4324 134C67.6588 134 67.0705 133.813 66.6677 133.439C66.2648 133.06 66.0634 132.529 66.0634 131.844C66.0634 131.142 66.3472 130.601 66.9149 130.222C67.4871 129.839 68.2699 129.647 69.2633 129.647H70.6573V128.785C70.6573 128.352 70.5199 128.009 70.2453 127.759C69.9706 127.503 69.5883 127.375 69.0985 127.375C68.7598 127.375 68.4599 127.419 68.199 127.505C67.9426 127.592 67.7343 127.711 67.5741 127.861L67.4299 128.641H66.3861V127.204C66.7249 126.935 67.1346 126.721 67.6153 126.561C68.096 126.397 68.6178 126.315 69.1809 126.315C70.0232 126.315 70.7053 126.529 71.2272 126.958C71.7491 127.387 72.01 128 72.01 128.799V132.364C72.01 132.46 72.01 132.554 72.01 132.645C72.0146 132.736 72.0215 132.827 72.0306 132.919L72.58 132.994V133.856H70.8083ZM68.6316 132.871C69.0802 132.871 69.4899 132.764 69.8607 132.549C70.2315 132.335 70.497 132.077 70.6573 131.776V130.558H69.2152C68.6613 130.558 68.2219 130.685 67.8968 130.941C67.5764 131.196 67.4162 131.507 67.4162 131.872C67.4162 132.196 67.5169 132.444 67.7183 132.618C67.9197 132.786 68.2241 132.871 68.6316 132.871Z" fill="#999591"/>
<path d="M73.7061 132.994L74.8254 132.802V127.512L73.7061 127.321V126.451H76.1782V132.802L77.2975 132.994V133.856H73.7061V132.994ZM76.1782 124.556H74.8254V123.18H76.1782V124.556Z" fill="#999591"/>
<path d="M78.3343 127.321V126.451H80.6622L80.7926 127.526C81.0032 127.147 81.2619 126.851 81.5686 126.636C81.8799 126.422 82.2347 126.315 82.6329 126.315C82.7382 126.315 82.8458 126.324 82.9557 126.342C83.0701 126.356 83.1571 126.372 83.2166 126.39L83.0381 127.642L82.269 127.601C81.9119 127.601 81.6121 127.686 81.3695 127.854C81.1268 128.019 80.9391 128.251 80.8064 128.552V132.802L81.9257 132.994V133.856H78.3343V132.994L79.4536 132.802V127.512L78.3343 127.321Z" fill="#999591"/>
<path d="M87.3573 132.946C87.8059 132.946 88.1996 132.809 88.5384 132.535C88.8817 132.257 89.0534 131.917 89.0534 131.516H90.2688L90.2825 131.557C90.3054 132.196 90.0193 132.764 89.4242 133.261C88.8337 133.754 88.1447 134 87.3573 134C86.2769 134 85.4506 133.649 84.8784 132.946C84.3107 132.243 84.0269 131.361 84.0269 130.298V130.01C84.0269 128.956 84.313 128.078 84.8853 127.375C85.4575 126.668 86.2815 126.315 87.3573 126.315C87.9524 126.315 88.4857 126.413 88.9573 126.609C89.4333 126.805 89.827 127.074 90.1383 127.416L90.2001 129.059H89.1221L88.8268 127.895C88.6666 127.74 88.4606 127.615 88.2088 127.519C87.957 127.423 87.6732 127.375 87.3573 127.375C86.6477 127.375 86.1396 127.631 85.8329 128.142C85.5307 128.648 85.3797 129.271 85.3797 130.01V130.298C85.3797 131.055 85.5307 131.687 85.8329 132.193C86.135 132.695 86.6431 132.946 87.3573 132.946Z" fill="#999591"/>
<path d="M96.9159 132.761C96.6824 133.158 96.3802 133.464 96.0094 133.678C95.6432 133.893 95.2198 134 94.7391 134C93.9334 134 93.3039 133.742 92.8507 133.227C92.3975 132.711 92.1709 131.908 92.1709 130.818V127.512L91.3194 127.321V126.451H93.5237V130.831C93.5237 131.621 93.6404 132.164 93.8739 132.46C94.1073 132.757 94.4713 132.905 94.9657 132.905C95.4464 132.905 95.8424 132.809 96.1536 132.618C96.4695 132.421 96.7076 132.145 96.8678 131.789V127.512L95.8721 127.321V126.451H98.2205V132.802L99.072 132.994V133.856H97.0051L96.9159 132.761Z" fill="#999591"/>
<path d="M102.505 124.665V126.451H103.913V127.451H102.505V131.947C102.505 132.294 102.576 132.538 102.718 132.679C102.865 132.821 103.057 132.891 103.295 132.891C103.414 132.891 103.547 132.882 103.693 132.864C103.844 132.841 103.97 132.818 104.071 132.795L104.256 133.719C104.128 133.802 103.941 133.868 103.693 133.918C103.446 133.973 103.199 134 102.952 134C102.402 134 101.965 133.836 101.64 133.507C101.315 133.174 101.153 132.654 101.153 131.947V127.451H99.9784V126.451H101.153V124.665H102.505Z" fill="#999591"/>
<path d="M110.979 128.778H109.963L109.743 127.889C109.578 127.733 109.37 127.61 109.118 127.519C108.871 127.423 108.589 127.375 108.274 127.375C107.793 127.375 107.436 127.48 107.202 127.69C106.969 127.9 106.852 128.153 106.852 128.45C106.852 128.742 106.955 128.972 107.161 129.141C107.367 129.31 107.786 129.46 108.418 129.593C109.356 129.793 110.054 130.067 110.512 130.414C110.97 130.756 111.199 131.217 111.199 131.796C111.199 132.453 110.931 132.985 110.395 133.391C109.864 133.797 109.168 134 108.308 134C107.745 134 107.239 133.936 106.79 133.808C106.342 133.676 105.941 133.487 105.589 133.24L105.582 131.55H106.598L106.852 132.542C107.008 132.684 107.218 132.786 107.484 132.85C107.754 132.914 108.029 132.946 108.308 132.946C108.789 132.946 109.164 132.85 109.434 132.659C109.709 132.462 109.846 132.207 109.846 131.892C109.846 131.596 109.732 131.351 109.503 131.16C109.278 130.968 108.85 130.802 108.219 130.66C107.317 130.464 106.637 130.197 106.179 129.86C105.721 129.522 105.492 129.066 105.492 128.491C105.492 127.889 105.749 127.375 106.262 126.951C106.779 126.527 107.45 126.315 108.274 126.315C108.837 126.315 109.342 126.388 109.791 126.534C110.24 126.68 110.613 126.883 110.91 127.143L110.979 128.778Z" fill="#999591"/>
<path d="M115.861 131.174C115.861 130.617 116.022 130.131 116.342 129.716C116.667 129.296 117.15 128.876 117.791 128.457C117.434 128.005 117.168 127.603 116.994 127.252C116.82 126.896 116.733 126.531 116.733 126.157C116.733 125.386 116.955 124.793 117.399 124.378C117.848 123.958 118.464 123.748 119.247 123.748C119.97 123.748 120.558 123.956 121.011 124.371C121.465 124.786 121.691 125.286 121.691 125.87C121.691 126.317 121.57 126.705 121.327 127.033C121.089 127.357 120.734 127.69 120.263 128.032L119.514 128.58L121.849 131.379C122.037 131.082 122.183 130.754 122.289 130.393C122.394 130.033 122.447 129.652 122.447 129.25H123.655C123.655 129.848 123.566 130.402 123.387 130.913C123.209 131.424 122.95 131.883 122.611 132.289L123.882 133.822L123.868 133.856H122.295L121.712 133.158C121.346 133.432 120.94 133.642 120.496 133.788C120.052 133.929 119.592 134 119.116 134C118.123 134 117.331 133.738 116.74 133.213C116.154 132.688 115.861 132.008 115.861 131.174ZM119.116 132.946C119.446 132.946 119.771 132.891 120.091 132.782C120.412 132.668 120.714 132.506 120.998 132.296L118.519 129.319L118.244 129.517C117.828 129.828 117.551 130.124 117.413 130.407C117.28 130.69 117.214 130.945 117.214 131.174C117.214 131.689 117.377 132.113 117.702 132.446C118.027 132.78 118.498 132.946 119.116 132.946ZM118.086 126.143C118.086 126.385 118.148 126.638 118.272 126.903C118.395 127.163 118.581 127.448 118.828 127.759L119.775 127.108C120.036 126.935 120.213 126.748 120.304 126.547C120.4 126.342 120.448 126.116 120.448 125.87C120.448 125.591 120.336 125.345 120.112 125.131C119.892 124.916 119.604 124.809 119.247 124.809C118.876 124.809 118.59 124.939 118.388 125.199C118.187 125.455 118.086 125.769 118.086 126.143Z" fill="#999591"/>
<path d="M135.439 126.835H134.415L134.161 125.411C133.955 125.238 133.681 125.094 133.337 124.98C132.994 124.866 132.596 124.809 132.142 124.809C131.424 124.809 130.872 124.962 130.488 125.267C130.103 125.569 129.911 125.963 129.911 126.451C129.911 126.885 130.105 127.248 130.494 127.54C130.888 127.827 131.522 128.08 132.397 128.299C133.449 128.559 134.248 128.943 134.793 129.449C135.342 129.955 135.617 130.583 135.617 131.331C135.617 132.134 135.287 132.78 134.628 133.268C133.974 133.756 133.115 134 132.053 134C131.284 134 130.6 133.875 130 133.624C129.405 133.373 128.92 133.044 128.544 132.638V130.783H129.561L129.821 132.214C130.082 132.428 130.394 132.604 130.755 132.741C131.117 132.878 131.55 132.946 132.053 132.946C132.735 132.946 133.273 132.802 133.667 132.515C134.065 132.227 134.264 131.837 134.264 131.345C134.264 130.888 134.093 130.507 133.749 130.202C133.406 129.891 132.799 129.631 131.93 129.422C130.872 129.171 130.046 128.801 129.451 128.313C128.856 127.825 128.558 127.211 128.558 126.472C128.558 125.692 128.89 125.044 129.554 124.528C130.217 124.008 131.08 123.748 132.142 123.748C132.843 123.748 133.479 123.869 134.051 124.111C134.628 124.348 135.091 124.638 135.439 124.98V126.835Z" fill="#999591"/>
<path d="M136.709 132.994L137.828 132.802V124.241L136.709 124.049V123.18H139.181V127.437C139.437 127.081 139.751 126.805 140.122 126.609C140.492 126.413 140.904 126.315 141.358 126.315C142.154 126.315 142.772 126.552 143.212 127.026C143.651 127.501 143.871 128.231 143.871 129.216V132.802L144.99 132.994V133.856H141.399V132.994L142.518 132.802V129.203C142.518 128.591 142.385 128.14 142.12 127.848C141.859 127.556 141.468 127.41 140.946 127.41C140.575 127.41 140.236 127.498 139.929 127.676C139.627 127.85 139.378 128.087 139.181 128.388V132.802L140.3 132.994V133.856H136.709V132.994Z" fill="#999591"/>
<path d="M150.82 133.856C150.779 133.656 150.747 133.475 150.724 133.316C150.701 133.156 150.685 132.996 150.676 132.837C150.415 133.17 150.088 133.448 149.694 133.671C149.305 133.89 148.888 134 148.444 134C147.671 134 147.082 133.813 146.679 133.439C146.277 133.06 146.075 132.529 146.075 131.844C146.075 131.142 146.359 130.601 146.927 130.222C147.499 129.839 148.282 129.647 149.275 129.647H150.669V128.785C150.669 128.352 150.532 128.009 150.257 127.759C149.982 127.503 149.6 127.375 149.11 127.375C148.772 127.375 148.472 127.419 148.211 127.505C147.954 127.592 147.746 127.711 147.586 127.861L147.442 128.641H146.398V127.204C146.737 126.935 147.146 126.721 147.627 126.561C148.108 126.397 148.63 126.315 149.193 126.315C150.035 126.315 150.717 126.529 151.239 126.958C151.761 127.387 152.022 128 152.022 128.799V132.364C152.022 132.46 152.022 132.554 152.022 132.645C152.026 132.736 152.033 132.827 152.042 132.919L152.592 132.994V133.856H150.82ZM148.643 132.871C149.092 132.871 149.502 132.764 149.872 132.549C150.243 132.335 150.509 132.077 150.669 131.776V130.558H149.227C148.673 130.558 148.234 130.685 147.909 130.941C147.588 131.196 147.428 131.507 147.428 131.872C147.428 132.196 147.529 132.444 147.73 132.618C147.931 132.786 148.236 132.871 148.643 132.871Z" fill="#999591"/>
<path d="M156.156 127.321L155.263 127.457L156.794 131.673L156.918 132.207H156.959L157.089 131.673L158.573 127.457L157.673 127.321V126.451H160.543V127.321L159.932 127.423L157.44 133.856H156.417L153.896 127.423L153.285 127.321V126.451H156.156V127.321Z" fill="#999591"/>
<path d="M164.76 134C163.725 134 162.901 133.658 162.288 132.973C161.679 132.285 161.374 131.393 161.374 130.298V129.996C161.374 128.943 161.688 128.067 162.315 127.368C162.947 126.666 163.693 126.315 164.554 126.315C165.552 126.315 166.307 126.616 166.82 127.218C167.337 127.82 167.596 128.623 167.596 129.627V130.469H162.775L162.755 130.503C162.768 131.215 162.949 131.801 163.297 132.262C163.645 132.718 164.133 132.946 164.76 132.946C165.217 132.946 165.618 132.882 165.961 132.754C166.309 132.622 166.609 132.442 166.861 132.214L167.39 133.09C167.124 133.345 166.772 133.562 166.332 133.74C165.897 133.913 165.373 134 164.76 134ZM164.554 127.375C164.1 127.375 163.714 127.567 163.393 127.95C163.073 128.329 162.876 128.806 162.803 129.381L162.816 129.415H166.243V129.237C166.243 128.708 166.101 128.265 165.817 127.909C165.533 127.553 165.112 127.375 164.554 127.375Z" fill="#999591"/>
<path d="M174.62 128.778H173.604L173.384 127.889C173.22 127.733 173.011 127.61 172.759 127.519C172.512 127.423 172.231 127.375 171.915 127.375C171.434 127.375 171.077 127.48 170.844 127.69C170.61 127.9 170.493 128.153 170.493 128.45C170.493 128.742 170.596 128.972 170.802 129.141C171.008 129.31 171.427 129.46 172.059 129.593C172.998 129.793 173.696 130.067 174.153 130.414C174.611 130.756 174.84 131.217 174.84 131.796C174.84 132.453 174.572 132.985 174.037 133.391C173.506 133.797 172.81 134 171.949 134C171.386 134 170.88 133.936 170.432 133.808C169.983 133.676 169.582 133.487 169.23 133.24L169.223 131.55H170.239L170.493 132.542C170.649 132.684 170.86 132.786 171.125 132.85C171.395 132.914 171.67 132.946 171.949 132.946C172.43 132.946 172.805 132.85 173.075 132.659C173.35 132.462 173.487 132.207 173.487 131.892C173.487 131.596 173.373 131.351 173.144 131.16C172.92 130.968 172.492 130.802 171.86 130.66C170.958 130.464 170.278 130.197 169.821 129.86C169.363 129.522 169.134 129.066 169.134 128.491C169.134 127.889 169.39 127.375 169.903 126.951C170.42 126.527 171.091 126.315 171.915 126.315C172.478 126.315 172.984 126.388 173.432 126.534C173.881 126.68 174.254 126.883 174.552 127.143L174.62 128.778Z" fill="#999591"/>
<path d="M83.1411 9.10207L83.8827 8.99942L87.3779 0H88.5384L91.9718 8.99942L92.7065 9.10207V9.96438H89.8362V9.10207L90.5916 8.97204L89.9324 7.13794H85.929L85.2492 8.97204L86.0046 9.10207V9.96438H83.1411V9.10207ZM86.3479 6.00874H89.5204L87.9685 1.73145H87.9273L86.3479 6.00874Z" fill="#999591"/>
<path d="M95.4601 3.42872L94.6086 3.57928L95.5769 7.26801L95.7348 8.16453H95.776L95.9683 7.26801L97.4515 2.55957H98.5364L100.027 7.26801L100.239 8.26719H100.281L100.48 7.26801L101.393 3.57928L100.528 3.42872V2.55957H103.357V3.42872L102.711 3.52453L100.837 9.96442H99.745L98.303 5.45444L97.994 4.20889L97.9528 4.21574L97.6644 5.45444L96.2498 9.96442H95.158L93.2834 3.52453L92.631 3.42872V2.55957H95.4601V3.42872Z" fill="#999591"/>
<path d="M107.848 10.108C106.813 10.108 105.989 9.76586 105.376 9.08149C104.767 8.39256 104.462 7.50061 104.462 6.40562V6.1045C104.462 5.05057 104.776 4.17459 105.403 3.47653C106.035 2.77392 106.781 2.42261 107.642 2.42261C108.64 2.42261 109.395 2.72373 109.908 3.32597C110.425 3.92821 110.684 4.7312 110.684 5.73494V6.57671H105.863L105.843 6.61093C105.856 7.32267 106.037 7.90895 106.385 8.36975C106.733 8.826 107.221 9.05412 107.848 9.05412C108.306 9.05412 108.706 8.99025 109.049 8.8625C109.397 8.73019 109.697 8.54997 109.949 8.32185L110.478 9.19784C110.212 9.45333 109.86 9.67005 109.42 9.84798C108.985 10.0213 108.461 10.108 107.848 10.108ZM107.642 3.48338C107.189 3.48338 106.802 3.675 106.481 4.05824C106.161 4.43693 105.964 4.9137 105.891 5.48857L105.905 5.52279H109.331V5.34485C109.331 4.81561 109.189 4.37305 108.905 4.01718C108.621 3.66131 108.2 3.48338 107.642 3.48338Z" fill="#999591"/>
<path d="M117.708 4.88633H116.692L116.472 3.99665C116.308 3.84153 116.099 3.71834 115.848 3.62709C115.6 3.53128 115.319 3.48338 115.003 3.48338C114.522 3.48338 114.165 3.58831 113.932 3.79818C113.698 4.00806 113.582 4.26127 113.582 4.55783C113.582 4.84983 113.685 5.08023 113.891 5.24904C114.097 5.41785 114.515 5.56841 115.147 5.70072C116.086 5.90147 116.784 6.17522 117.242 6.52196C117.699 6.86415 117.928 7.32495 117.928 7.90438C117.928 8.56138 117.66 9.0929 117.125 9.49896C116.594 9.90501 115.898 10.108 115.037 10.108C114.474 10.108 113.968 10.0441 113.52 9.91642C113.071 9.78411 112.671 9.59477 112.318 9.3484L112.311 7.65801H113.327L113.582 8.65034C113.737 8.79178 113.948 8.89443 114.213 8.95831C114.483 9.02218 114.758 9.05412 115.037 9.05412C115.518 9.05412 115.893 8.95831 116.163 8.76669C116.438 8.5705 116.575 8.315 116.575 8.0002C116.575 7.70364 116.461 7.45955 116.232 7.26792C116.008 7.0763 115.58 6.90977 114.948 6.76833C114.046 6.57215 113.366 6.30525 112.909 5.96763C112.451 5.63001 112.222 5.17376 112.222 4.59889C112.222 3.99665 112.478 3.48338 112.991 3.05907C113.508 2.63476 114.179 2.42261 115.003 2.42261C115.566 2.42261 116.072 2.49561 116.521 2.6416C116.969 2.7876 117.342 2.99063 117.64 3.25069L117.708 4.88633Z" fill="#999591"/>
<path d="M119.199 6.19347C119.199 5.09848 119.496 4.1974 120.091 3.49022C120.686 2.77848 121.494 2.42261 122.515 2.42261C123.541 2.42261 124.351 2.7762 124.946 3.48338C125.546 4.19055 125.846 5.09392 125.846 6.19347V6.34403C125.846 7.44814 125.548 8.3515 124.953 9.05412C124.358 9.75674 123.55 10.108 122.529 10.108C121.499 10.108 120.686 9.75674 120.091 9.05412C119.496 8.34694 119.199 7.44358 119.199 6.34403V6.19347ZM120.551 6.34403C120.551 7.12877 120.716 7.77663 121.046 8.28763C121.38 8.79862 121.874 9.05412 122.529 9.05412C123.17 9.05412 123.657 8.79862 123.992 8.28763C124.326 7.77663 124.493 7.12877 124.493 6.34403V6.19347C124.493 5.41785 124.326 4.77227 123.992 4.25671C123.657 3.74115 123.165 3.48338 122.515 3.48338C121.865 3.48338 121.375 3.74115 121.046 4.25671C120.716 4.77227 120.551 5.41785 120.551 6.19347V6.34403Z" fill="#999591"/>
<path d="M126.821 9.10202L127.94 8.9104V3.62025L126.821 3.42863V2.55948H129.155L129.245 3.52444C129.483 3.17313 129.789 2.90166 130.165 2.71004C130.54 2.51842 130.975 2.42261 131.47 2.42261C131.964 2.42261 132.387 2.53667 132.74 2.76479C133.097 2.99291 133.365 3.3351 133.543 3.79134C133.777 3.3716 134.086 3.03854 134.47 2.79217C134.855 2.54579 135.303 2.42261 135.816 2.42261C136.576 2.42261 137.176 2.68267 137.615 3.20279C138.055 3.71834 138.275 4.49624 138.275 5.53648V8.9104L139.394 9.10202V9.96433H135.796V9.10202L136.915 8.9104V5.52279C136.915 4.7928 136.789 4.27724 136.537 3.97612C136.285 3.67044 135.912 3.51759 135.418 3.51759C134.946 3.51759 134.566 3.68412 134.278 4.01718C133.994 4.34568 133.829 4.76086 133.784 5.26273V8.9104L134.903 9.10202V9.96433H131.312V9.10202L132.431 8.9104V5.52279C132.431 4.8293 132.3 4.32287 132.039 4.00349C131.783 3.67956 131.41 3.51759 130.92 3.51759C130.508 3.51759 130.169 3.602 129.904 3.77081C129.638 3.93962 129.435 4.17687 129.293 4.48255V8.9104L130.412 9.10202V9.96433H126.821V9.10202Z" fill="#999591"/>
<path d="M143.706 10.108C142.672 10.108 141.848 9.76586 141.234 9.08149C140.625 8.39256 140.321 7.50061 140.321 6.40562V6.1045C140.321 5.05057 140.634 4.17459 141.262 3.47653C141.893 2.77392 142.64 2.42261 143.5 2.42261C144.498 2.42261 145.253 2.72373 145.766 3.32597C146.283 3.92821 146.542 4.7312 146.542 5.73494V6.57671H141.722L141.701 6.61093C141.715 7.32267 141.896 7.90895 142.244 8.36975C142.591 8.826 143.079 9.05412 143.706 9.05412C144.164 9.05412 144.564 8.99025 144.908 8.8625C145.256 8.73019 145.556 8.54997 145.807 8.32185L146.336 9.19784C146.071 9.45333 145.718 9.67005 145.279 9.84798C144.844 10.0213 144.32 10.108 143.706 10.108ZM143.5 3.48338C143.047 3.48338 142.66 3.675 142.34 4.05824C142.019 4.43693 141.822 4.9137 141.749 5.48857L141.763 5.52279H145.189V5.34485C145.189 4.81561 145.047 4.37305 144.764 4.01718C144.48 3.66131 144.059 3.48338 143.5 3.48338Z" fill="#999591"/>
<path d="M230.033 106.073H0V108.075H230.033V106.073Z" fill="#FF9000"/>
<path d="M230.033 25.9825H0V27.9848H230.033V25.9825Z" fill="#FF9000"/>
<path d="M210.947 64.0254C212.611 64.0254 213.961 65.3701 213.961 67.0288C213.961 68.6876 212.611 70.0322 210.947 70.0322C209.283 70.0322 207.933 68.6876 207.933 67.0288C207.933 65.3701 209.283 64.0254 210.947 64.0254Z" fill="#999591"/>
<path d="M19.0857 64.0254C20.75 64.0254 22.0992 65.3701 22.0992 67.0288C22.0992 68.6876 20.75 70.0322 19.0857 70.0322C17.4214 70.0322 16.0721 68.6876 16.0721 67.0288C16.0721 65.3701 17.4214 64.0254 19.0857 64.0254Z" fill="#999591"/>
<path fill-rule="evenodd" clip-rule="evenodd" d="M125.574 74.6027L129.859 74.8375L126.684 70.4975C126.131 69.7969 125.441 68.6777 124.475 66.9968L122.68 62.6567H121.301V66.9968C121.301 68.8166 121.576 69.7969 121.99 69.7969H123.648V70.9172H115.225V69.7969H116.468C116.606 69.7969 116.743 69.656 116.743 69.5171V55.5175C116.743 54.6781 116.605 54.1175 116.468 53.9776C116.279 53.8025 116.033 53.7031 115.777 53.6978H114.535V52.5775H123.648C124.888 52.5775 126.132 52.8573 127.098 53.2781C129.032 54.2584 129.998 55.7984 129.998 58.1778C129.998 58.8773 129.723 59.4379 129.307 60.1374C128.618 61.1168 127.513 61.6774 126.269 61.8173C126.822 62.7976 129.584 67.2776 134.692 75.1163L138.832 75.2572L135.795 71.6177C134.001 69.2373 133.035 67.4175 132.895 66.4382C132.757 64.8982 133.172 63.778 133.863 62.7987C134.691 61.8183 135.933 61.3986 137.452 61.3986C139.524 61.3986 140.903 63.2184 141.593 66.9978C140.489 64.1977 138.693 63.2184 136.346 64.1977C135.656 64.4775 135.104 64.8982 134.966 65.318L134.828 66.1584C134.828 67.1387 135.243 67.9782 136.208 68.6787C137.174 69.5181 138.417 69.9378 139.936 69.9378C141.455 69.9378 142.697 69.5181 143.663 68.8176C144.629 67.8383 145.182 66.718 145.182 65.318C145.182 64.3386 144.907 63.4982 144.216 62.7987C143.458 62.2131 142.621 61.7415 141.73 61.3986L138.555 60.2783C137.314 59.7187 136.346 59.1581 135.656 58.5985C133.999 57.3383 133.171 55.5186 133.171 53.419C133.171 51.0386 134.275 49.0789 136.345 47.8198C138.141 46.5596 140.211 46 142.697 46C144.769 46 146.425 46.2798 147.806 46.6995L148.08 50.0603C148.218 50.6199 147.942 50.9007 147.528 50.9007C147.115 50.9007 146.839 50.6209 146.7 50.0603C146.562 49.3597 146.009 48.6602 145.181 48.2405C144.49 47.8208 143.524 47.6809 142.558 47.6809C141.316 47.6809 140.35 47.9607 139.521 48.5203C138.553 49.2209 138 50.2012 138 51.4603C138 52.3008 138.277 53.0003 138.968 53.5609C139.381 53.9806 140.209 54.4004 141.315 54.8201L144.489 56.0802C145.732 56.4999 146.838 57.2005 147.804 57.9C148.51 58.6242 149.072 59.4795 149.46 60.4193C149.875 61.3996 150.151 62.3789 150.151 63.3593C150.151 66.5791 149.047 68.8196 146.839 70.0798C144.905 71.0591 141.868 71.6197 137.863 71.6197C137.588 71.6197 137.725 72.0395 138.278 72.74C138.691 73.5794 139.382 74.4209 140.35 75.2603L151.257 75.8199L160.368 76.9402C160.23 77.3609 154.707 77.7806 143.8 78.2003C145.321 79.1797 146.977 79.7403 148.495 80.16C151.395 80.7196 154.016 80.7196 156.226 80.16C157.607 79.7403 159.403 78.8998 161.612 77.6397C164.097 76.2396 166.03 75.2603 167.549 74.6997C170.311 73.7203 173.486 73.2996 177.076 73.2996C179.837 73.2996 182.047 73.7203 183.702 74.6997C185.083 75.5391 185.911 76.5194 186.189 77.7806C186.464 79.0397 186.189 80.0191 185.498 80.9994C184.668 81.9798 183.426 82.3995 181.909 82.3995C184.531 78.62 182.322 76.2396 175.282 75.4002C173.21 75.2603 171.14 75.4002 169.206 75.8199C167.687 76.0997 166.168 76.6604 164.375 77.6397L159.956 79.7403C158.161 80.5797 156.642 81.1403 155.261 81.2802C152.362 81.7 149.324 81.4202 146.426 80.4408C144.769 79.7403 143.251 79.0408 142.007 78.2013L136.761 78.3412L147.529 95L139.383 87.0214C138.97 87.0214 136.76 84.3612 132.756 78.9009L132.481 78.4812L127.235 78.7548V78.9019C127.235 78.9111 127.219 79.0295 127.217 79.0377L127.215 79.0459C127.122 79.4071 126.979 79.7531 126.79 80.0732L126.792 80.0742C126.318 80.8646 125.553 81.4845 124.555 81.9338L124.539 81.942C124.15 82.114 123.746 82.2471 123.331 82.3392C122.2 82.5888 121.025 82.5555 119.909 82.2422L119.903 82.2402C119.46 82.1166 119.028 81.9564 118.611 81.7612C117.63 81.3085 116.755 80.6484 116.046 79.825H116.047C115.51 79.2011 115.162 78.57 114.985 77.9328C114.806 77.2907 114.799 76.612 114.963 75.9659L114.965 75.9578C115.055 75.5957 115.199 75.2497 115.391 74.9315L115.39 74.9305C115.865 74.14 116.628 73.5192 117.625 73.0709L117.674 73.0504L117.693 73.0443C117.872 72.9851 118.062 72.9289 118.269 72.8768V72.8758C118.465 72.8258 118.667 72.7829 118.875 72.7471C119.997 72.5487 121.148 72.5996 122.249 72.8962C122.538 72.9417 122.824 73.0065 123.105 73.0903C123.848 73.318 124.551 73.6815 125.098 74.1247L125.141 74.1666L125.574 74.6027V74.6027ZM126.131 78.8335V78.4771L126.137 78.3984C126.197 77.9897 126.163 77.5725 126.039 77.1791C125.907 76.7645 125.671 76.3438 125.312 75.918L124.396 74.9887C123.915 74.6126 123.369 74.3313 122.787 74.1595C122.668 74.1227 122.548 74.09 122.427 74.0614H122.425C122.305 74.0341 122.185 74.0119 122.063 73.995L122.049 73.993L121.983 73.9787C120.855 73.6726 119.669 73.6653 118.537 73.9573H118.535C118.376 73.9981 118.211 74.0471 118.044 74.1033C117.271 74.4566 116.686 74.9264 116.337 75.5085H116.335C116.268 75.6208 116.209 75.7382 116.16 75.8546C116.111 75.9756 116.071 76.0998 116.039 76.2264L116.037 76.2345C115.921 76.7012 115.921 77.1658 116.049 77.6274C116.183 78.1094 116.457 78.5965 116.882 79.0918L116.888 79.0959C117.493 79.7969 118.239 80.3585 119.075 80.7431C119.437 80.9118 119.812 81.0501 120.196 81.1567L120.202 81.1587C121.147 81.4258 122.141 81.4563 123.1 81.2476C123.442 81.1681 123.777 81.0566 124.099 80.9147L124.117 80.9065C124.904 80.5521 125.498 80.0783 125.85 79.4881H125.852C125.977 79.2854 126.071 79.0647 126.131 78.8335V78.8335ZM124.474 60.6981C123.922 61.2577 123.094 61.5385 121.988 61.5385H121.299V54.2584C121.299 54.1185 121.437 53.9786 121.85 53.9786C122.818 53.9786 123.784 54.3983 124.473 55.2388C125.163 56.0792 125.439 57.0585 125.439 58.0389C125.44 59.1581 125.165 59.9985 124.474 60.6981V60.6981ZM168.932 52.5785V53.6988H167.966L167.551 53.8397L167.413 54.2594V66.9988C167.413 68.8186 167.688 69.7989 168.104 69.7989H169.623V70.9192H161.339V69.7989H162.58C162.718 69.7989 162.855 69.658 162.855 69.5191V61.6794H156.781V66.9988C156.781 68.8186 157.058 69.7989 157.472 69.7989H159.129V70.9192H150.708V69.7989H151.951C152.089 69.7989 152.226 69.658 152.226 69.5191V55.5175C152.226 54.6781 152.088 54.1175 151.951 53.9776C151.811 53.8377 151.674 53.6978 151.398 53.6978H150.017V52.5775H158.44V53.6978H157.334L156.919 53.8387L156.781 54.2584V60.4172H162.855V55.5175C162.855 54.6781 162.717 54.1175 162.58 53.9776C162.442 53.8377 162.305 53.6978 162.027 53.6978H160.646V52.5775H168.932V52.5785V52.5785ZM171.968 69.0974C173.762 70.6374 175.974 71.4778 178.733 71.4778C182.186 71.4778 184.809 70.2176 186.603 67.8383C188.122 66.0185 188.812 63.778 188.812 61.2577C188.812 58.4576 187.984 56.2181 186.189 54.5382C184.393 52.8583 182.184 52.0179 179.422 52.0179C175.972 52.0179 173.348 53.2781 171.552 55.6585C170.034 57.6181 169.344 59.8576 169.344 62.238C169.345 65.178 170.175 67.4175 171.968 69.0974ZM188.4 52.5785V53.6988H189.778C190.055 53.6988 190.193 53.8397 190.331 53.9786C190.469 54.1185 190.608 54.6791 190.608 55.5186V69.5181C190.608 69.658 190.468 69.7979 190.331 69.7979H189.091V70.9182H197.511V69.7979H195.854C195.439 69.7979 195.163 68.8176 195.163 66.9978V62.3779L197.51 62.6577C199.582 62.6577 201.237 62.0981 202.481 60.9779C203.447 59.9985 204 58.8773 204 57.6181C204 56.358 203.585 55.3787 202.619 54.3983C201.515 53.1392 199.858 52.5785 197.648 52.5785H188.4V52.5785ZM178.32 53.2781C180.392 53.2781 182.048 54.5382 183.014 57.1984C183.841 59.1581 184.256 61.3976 184.256 63.778C184.256 65.5978 183.981 66.9978 183.428 68.1181C182.601 69.5181 181.357 70.2187 179.839 70.2187C177.767 70.2187 176.112 68.9595 175.006 66.4392C174.315 64.4796 173.902 62.239 173.902 59.7198C173.902 58.0389 174.177 56.6388 174.73 55.5196C175.421 53.9786 176.662 53.2781 178.32 53.2781V53.2781ZM198.477 55.2388C199.168 56.0792 199.445 57.0585 199.445 58.1788C199.445 59.1581 199.168 59.8586 198.617 60.4183C197.926 61.1188 197.236 61.3986 196.268 61.3986L195.165 61.1188V54.2584C195.165 54.1185 195.439 53.9786 195.855 53.9786C196.958 53.9786 197.786 54.3983 198.477 55.2388V55.2388ZM132.482 76.7972L132.757 76.0967L133.448 75.8169C133.725 75.8169 134.001 75.9578 134.139 76.0967L134.416 76.7972C134.416 77.076 134.276 77.3578 134.139 77.4977C134.002 77.6376 133.726 77.7775 133.448 77.7775L132.757 77.4977C132.585 77.3055 132.487 77.0567 132.482 76.7972ZM28.7957 48.0986C29.2096 48.0986 29.4856 48.2385 29.6236 48.3784C29.8995 48.7981 30.0375 49.4986 30.0375 50.4779V69.0974C30.0375 69.2373 29.7615 69.3772 29.3466 69.3772L27.5519 69.5171V70.9172H35.9745L39.8398 70.7773C41.3586 70.6363 42.6014 70.3565 43.5672 69.9368C44.948 69.5171 46.0528 68.8166 46.8806 67.8372C47.6978 66.7522 48.1351 65.422 48.1234 64.0568C48.1234 60.5571 45.9148 58.3166 41.4955 57.3363C43.1533 56.9166 44.395 56.357 45.0849 55.7963C46.3277 54.816 47.0176 53.5568 47.0176 52.0159C47.0176 51.0365 46.6037 50.0562 45.9128 49.0758C44.532 47.5369 42.3234 46.6954 39.1479 46.6954H27V48.0955H28.7957V48.0986V48.0986ZM54.8893 52.7184L51.4379 60.697C49.3662 65.7377 48.2624 68.6767 47.9854 69.3772C47.9854 69.5171 47.8475 69.656 47.7095 69.7969H46.3297V70.9172H51.9908V69.7969H49.9191L49.7811 69.3772C49.7811 68.9575 50.0571 67.9771 50.472 66.718L51.2999 64.6174H56.685C57.7898 67.8372 58.3427 69.3772 58.3427 69.5171C58.3427 69.657 58.2047 69.7969 57.9278 69.7969H56.685V70.9172H64.9696V69.7969H64.1407C63.7268 69.7969 63.4498 69.656 63.3118 69.2363L62.346 67.1367L59.3075 59.0172C58.0657 55.7973 57.5128 53.9766 57.5128 53.6967L57.9268 53.1371C58.0647 52.9972 58.2027 52.8573 58.2027 52.7174C58.2027 52.4376 58.0647 52.2967 57.7878 52.2967L54.8893 52.7184V52.7184ZM36.9413 48.3784C38.3221 48.3784 39.4269 48.7981 40.3927 49.7784C41.3586 50.7578 41.7735 52.0179 41.7735 53.418C41.7735 54.2584 41.6355 54.9579 41.3596 55.5175C40.9456 56.2181 40.3937 56.7777 39.7029 56.9176L35.9755 56.6378V48.7981C35.9745 48.5183 36.2504 48.3784 36.9413 48.3784V48.3784ZM35.9745 63.2184V58.0389C38.3221 58.0389 39.9788 58.7394 41.0826 60.2783C41.9115 61.3986 42.3254 62.6588 42.3254 64.0588C42.3254 65.4589 41.9105 66.719 41.0826 67.6984C40.1168 68.6787 39.012 69.2383 37.6312 69.2383L36.8023 69.0984C36.5556 68.9887 36.3586 68.7889 36.2504 68.5388C36.1125 67.8383 35.9745 66.1574 35.9745 63.2184V63.2184ZM51.7138 63.3573L54.1984 57.6181L56.27 63.3573H51.7138ZM67.0392 55.5175V69.5171C67.0343 69.5897 67.0036 69.658 66.9529 69.7094C66.9022 69.7608 66.8348 69.7919 66.7633 69.7969H65.5215V70.9172H73.943V69.7969H72.2863C71.8724 69.7969 71.5954 68.8166 71.5954 66.9968V62.6567H72.9762L74.9089 66.9968C75.7377 68.6777 76.4276 69.7969 77.1175 70.4975C77.2555 70.6374 77.3935 70.7773 77.6704 70.9172H83.0545V69.7969C82.5026 69.7969 81.9497 69.5171 81.5358 69.0964C80.017 67.5564 78.4983 65.0361 76.7036 61.8163C77.9454 61.6764 78.9122 61.1168 79.6031 60.1364C80.155 59.4359 80.4309 58.8763 80.4309 58.1767C80.4309 55.7963 79.4651 54.2574 77.3935 53.277C76.3477 52.8166 75.2201 52.5782 74.08 52.5765H64.8296V53.6967H66.2104C66.4863 53.6967 66.6253 53.8377 66.7623 53.9766C66.9012 54.1185 67.0392 54.6781 67.0392 55.5175V55.5175ZM72.2853 53.9786C73.2512 53.9786 74.08 54.3983 74.7709 55.2388C75.4608 56.0792 75.7367 57.0585 75.7367 58.0389C75.7367 59.1591 75.4608 59.9985 74.9079 60.6981C74.217 61.2577 73.3891 61.5385 72.4223 61.5385H71.5944V54.2584C71.5954 54.1185 71.8714 53.9786 72.2853 53.9786V53.9786ZM85.2631 55.5175V69.5171C85.2582 69.5897 85.2275 69.658 85.1768 69.7094C85.1261 69.7608 85.0587 69.7919 84.9872 69.7969H83.7444V70.9172H89.8193C92.4419 70.9172 94.3756 70.6374 95.4804 70.2166C97.827 69.3772 98.9318 67.8372 98.9318 65.7366C98.9318 63.0774 97.2751 61.3966 93.9606 60.696C95.2034 60.2763 96.0323 59.8566 96.7222 59.4369C97.688 58.7363 98.1029 57.8969 98.1029 56.6368C98.1029 55.9372 97.827 55.2367 97.2741 54.5372C96.3082 53.277 94.5125 52.5775 92.1659 52.5775H83.0535V53.6978H84.4343C84.7102 53.6978 84.8492 53.8387 84.9872 53.9776C85.1251 54.1185 85.2631 54.6781 85.2631 55.5175V55.5175ZM100.452 53.6978H99.0698V52.5775H113.567L113.291 55.5175C113.153 55.7974 113.015 55.9383 112.739 55.9383C112.464 55.9383 112.325 55.7984 112.325 55.3787L112.049 54.818L111.497 54.3983L109.149 53.9786H105.974L105.836 54.3983V60.4183H107.354C108.873 60.4183 109.84 60.2783 110.254 60.1395C110.53 59.9996 110.668 59.7198 110.668 59.299V58.3197H111.635V63.3593H110.668V62.9386C110.668 62.3779 110.53 62.0981 110.392 61.9592C110.116 61.8183 109.425 61.6794 108.321 61.6794H105.836V65.1791C105.836 66.9988 105.836 68.259 105.974 68.9595C106.113 69.3792 106.25 69.6591 106.526 69.6591L110.806 69.3803C112.325 69.1005 113.153 68.5408 113.567 67.8403L114.12 67.4196C114.396 67.4196 114.534 67.5605 114.534 67.8403C114.534 68.26 114.258 69.2393 113.705 70.9202H99.7607V69.8H101.003C101.141 69.8 101.279 69.659 101.279 69.5202V55.5175C101.279 54.6781 101.14 54.1175 101.003 53.9776C100.865 53.8387 100.726 53.6978 100.452 53.6978V53.6978ZM92.5819 60.2783L89.8204 60.1384V54.2584C89.8204 54.1185 90.0963 53.9786 90.5112 53.9786C91.4771 53.9786 92.4439 54.2584 93.1338 54.9589C93.8237 55.6595 94.1006 56.6388 94.1006 57.758C94.1006 58.3187 93.9617 58.8783 93.8247 59.298C93.5477 59.8576 93.1328 60.1384 92.5819 60.2783V60.2783ZM91.0621 69.657L90.3723 69.5171C90.2343 69.5171 90.0963 69.3772 90.0963 69.0974C89.9573 68.6777 89.8204 67.2776 89.8204 65.178V61.2577C91.4771 61.2577 92.7199 61.8173 93.6857 62.9386C94.3766 63.778 94.6525 64.7583 94.6525 65.7387C94.6525 66.719 94.2376 67.6984 93.5477 68.3979C92.8568 69.2373 92.029 69.657 91.0621 69.657V69.657Z" fill="#F4EDE8"/>
</svg>
